<svg width="24" height="24" viewBox="0 0 24 24" fill="none" xmlns="http://www.w3.org/2000/svg">
<path d="M4 14.5H6.67C6.94386 14.5 7.17 14.7261 7.17 15V21C7.17 21.2739 6.94386 21.5 6.67 21.5H3C2.72614 21.5 2.5 21.2739 2.5 21V16C2.5 15.1761 3.17614 14.5 4 14.5Z" fill="#34AD6C" stroke="#121212"/>
<path d="M10.6602 10.5H13.3302C14.1624 10.5 14.8302 11.1745 14.8302 12V21C14.8302 21.2739 14.604 21.5 14.3302 21.5H9.66016C9.3863 21.5 9.16016 21.2739 9.16016 21V12C9.16016 11.1761 9.8363 10.5 10.6602 10.5Z" fill="#34AD6C" stroke="#121212"/>
<path d="M17.3301 17.5H20.0001C20.8239 17.5 21.5001 18.1761 21.5001 19V21C21.5001 21.2739 21.2739 21.5 21.0001 21.5H17.3301C17.0562 21.5 16.8301 21.2739 16.8301 21V18C16.8301 17.7261 17.0562 17.5 17.3301 17.5Z" fill="#34AD6C" stroke="#121212"/>
<path d="M14.4082 3.72367L14.4082 3.72368L14.4119 3.72426C14.7306 3.77497 14.8374 3.91716 14.8632 3.99961C14.8912 4.08909 14.8799 4.2739 14.6569 4.49692L13.9189 5.23485C13.8518 5.29613 13.8127 5.36137 13.793 5.39793C13.7651 5.44945 13.7459 5.50047 13.7328 5.54429C13.7129 5.61065 13.6813 5.74442 13.7101 5.88852L13.71 5.88856L13.713 5.90174L13.923 6.82174L13.9234 6.82341C13.9859 7.09309 13.9561 7.24094 13.9303 7.31045C13.9067 7.37421 13.8742 7.40526 13.8564 7.41885C13.8134 7.44656 13.7618 7.47047 13.6904 7.47047C13.6105 7.47047 13.4693 7.45022 13.2599 7.32307L13.2599 7.32306L13.2563 7.32087L12.3766 6.79702C12.2895 6.74139 12.2052 6.72159 12.166 6.71363C12.1089 6.70202 12.0536 6.69797 12.0054 6.69797C11.9572 6.69797 11.9019 6.70202 11.8448 6.71363C11.8059 6.72154 11.7224 6.74116 11.6359 6.79601L10.7467 7.31962L10.7463 7.31987C10.5089 7.45997 10.3604 7.47504 10.2867 7.47116C10.2131 7.46729 10.1672 7.44208 10.1388 7.42198C10.1223 7.41037 10.0862 7.3797 10.0605 7.31045C10.0347 7.24094 10.005 7.09309 10.0675 6.82341L10.0679 6.82174L10.2775 5.90366C10.3 5.80722 10.2914 5.72294 10.2875 5.68996C10.2819 5.64196 10.2717 5.59501 10.2594 5.55231C10.2471 5.51027 10.2291 5.45979 10.2027 5.40842C10.1852 5.37443 10.146 5.30348 10.0744 5.23716L9.34635 4.4993L9.34635 4.49929L9.34398 4.49692C9.12616 4.27909 9.11034 4.09771 9.13578 4.00601C9.17351 3.90496 9.2883 3.77209 9.58899 3.72426L9.58899 3.72427L9.59263 3.72367L10.5364 3.56637C10.6336 3.55435 10.7057 3.51912 10.7333 3.50513C10.7822 3.48041 10.8251 3.45143 10.8598 3.42422C10.8946 3.39702 10.9332 3.36224 10.9692 3.32033C10.9888 3.29762 11.0338 3.24338 11.0679 3.16349L11.5876 2.12408L11.5876 2.12408L11.5887 2.12186C11.7205 1.85502 11.8919 1.79297 11.9954 1.79297C12.099 1.79297 12.2703 1.85502 12.4021 2.12186L12.4021 2.12186L12.4032 2.12408L12.9332 3.18408C12.9721 3.26194 13.0229 3.31713 13.0486 3.34346C13.0805 3.37624 13.1147 3.40558 13.1479 3.43047C13.1804 3.45481 13.2217 3.4823 13.2693 3.50612C13.2957 3.51931 13.3674 3.55433 13.4643 3.56635L14.4082 3.72367Z" fill="#34AD6C" stroke="#121212"/>
</svg>
