<svg width="40" height="40" viewBox="0 0 40 40" fill="none" xmlns="http://www.w3.org/2000/svg">
<path d="M29.2724 16.1793L29.274 16.178C29.9132 15.6586 30.0139 14.7036 29.4964 14.063C28.9911 13.4 28.0313 13.3046 27.3929 13.8226C27.3926 13.8228 27.3923 13.8231 27.392 13.8233L22.177 17.9886L22.1765 17.989C21.5955 18.4553 20.7997 18.6965 19.9913 18.6965C19.183 18.6965 18.3872 18.4553 17.8062 17.989L17.8057 17.9886L12.5907 13.8233C12.5904 13.8231 12.5901 13.8228 12.5898 13.8226C11.944 13.2986 11.0047 13.4249 10.489 14.0597L10.4889 14.0596L10.486 14.0634C9.98625 14.7031 10.0853 15.658 10.7254 16.178L10.727 16.1793L15.9417 20.3444C15.942 20.3447 15.9424 20.345 15.9427 20.3452C17.0769 21.2696 18.5513 21.7173 19.9997 21.7173C21.4496 21.7173 22.9066 21.2687 24.0562 20.3456L29.2724 16.1793ZM11.6663 6.08398H28.333C30.7947 6.08398 32.8079 6.69944 34.2046 7.99635C35.5979 9.29014 36.4163 11.2983 36.4163 14.1673V25.834C36.4163 28.703 35.5979 30.7112 34.2046 32.005C32.8079 33.3019 30.7947 33.9173 28.333 33.9173H11.6663C9.20467 33.9173 7.19146 33.3019 5.79479 32.005C4.40147 30.7112 3.58301 28.703 3.58301 25.834V14.1673C3.58301 11.2983 4.40147 9.29014 5.79479 7.99635C7.19146 6.69944 9.20467 6.08398 11.6663 6.08398Z" fill="#34AD6C" stroke="#121212" stroke-width="0.5"/>
</svg>
